<?xml version="1.0" encoding="UTF-8" standalone="no" ?>
<!DOCTYPE svg PUBLIC "-//W3C//DTD SVG 1.1//EN" "http://www.w3.org/Graphics/SVG/1.1/DTD/svg11.dtd">
<svg xmlns="http://www.w3.org/2000/svg" xmlns:xlink="http://www.w3.org/1999/xlink" version="1.1" width="1080" height="1080" viewBox="0 0 1080 1080" xml:space="preserve">
<desc>Created with Fabric.js 5.2.4</desc>
<defs>
</defs>
<g transform="matrix(1 0 0 1 540 540)" id="3a28990f-a054-49b0-bc34-3db902b4ec99"  >
</g>
<g transform="matrix(1 0 0 1 540 540)" id="117f9b77-126f-4984-9e33-5ee241bcfde6"  >
<rect style="stroke: none; stroke-width: 1; stroke-dasharray: none; stroke-linecap: butt; stroke-dashoffset: 0; stroke-linejoin: miter; stroke-miterlimit: 4; fill: rgb(255,255,255); fill-rule: nonzero; opacity: 1; visibility: hidden;" vector-effect="non-scaling-stroke"  x="-540" y="-540" rx="0" ry="0" width="1080" height="1080" />
</g>
<g transform="matrix(1.82 0 0 1.82 540.22 529.53)"  >
<path style="stroke: none; stroke-width: 1; stroke-dasharray: none; stroke-linecap: butt; stroke-dashoffset: 0; stroke-linejoin: miter; stroke-miterlimit: 4; fill: rgb(233,194,84); fill-rule: nonzero; opacity: 1;" vector-effect="non-scaling-stroke"  transform=" translate(-301.76, -295.88)" d="M 105.927124 281.922089 C 106.548424 260.330933 110.951836 239.596649 120.032463 219.934204 C 128.14447 202.369125 137.928818 185.873932 151.017502 171.480728 C 156.432541 165.52597 160.961411 158.468323 167.227188 153.645065 C 180.974014 143.063019 195.068283 132.737595 209.965881 123.900818 C 224.409134 115.333557 240.426773 109.657745 256.940552 106.181206 C 265.530121 104.37291 274.408417 103.807404 283.189178 103.074661 C 290.923065 102.429283 298.769989 101.528854 306.447113 102.172043 C 319.547516 103.269608 332.624603 105.087738 345.575836 107.372292 C 354.598572 108.963875 363.807434 110.86039 372.188782 114.388802 C 382.990204 118.936043 393.489868 124.572289 403.311859 130.977905 C 415.080719 138.653229 426.961182 146.623199 437.081604 156.26268 C 457.629272 175.833923 474.136963 198.441818 484.311737 225.435287 C 491.496216 244.495544 495.967285 263.787018 497.272125 284.214142 C 499.034607 311.804993 494.651703 338.280884 485.889374 364.11441 C 479.815125 382.022797 470.280334 398.356232 458.298645 412.976135 C 450.154968 422.912964 441.448303 432.529633 432.031738 441.251251 C 414.95163 457.070984 395.09845 468.847076 373.26236 476.872864 C 361.879517 481.05661 350.087799 484.249115 338.302429 487.16983 C 331.527893 488.848785 324.389587 489.880676 317.427887 489.816254 C 302.069641 489.674164 286.645782 489.370209 271.385803 487.799835 C 254.382492 486.050079 237.740417 481.737793 222.439835 473.922913 C 208.508133 466.807251 194.435211 459.582489 181.736221 450.559692 C 171.3992 443.215088 162.911575 433.232086 153.76825 424.251648 C 141.749268 412.446838 133.473785 398.043793 126.046532 383.135468 C 116.534889 364.043243 109.587418 344.05838 106.110138 322.964478 C 105.628159 320.04068 105.99543 316.976868 105.992218 313.052368 C 105.985634 302.058624 105.956383 291.990356 105.927124 281.922089 M 313.041931 123.024918 C 313.041931 123.024918 312.96167 123.114334 312.428619 122.472603 C 303.668121 122.588318 294.907654 122.704041 285.362518 123.173157 C 284.785187 123.439941 284.233215 123.834297 283.626801 123.954628 C 271.851929 126.291168 259.911438 127.993065 248.32962 131.053772 C 232.549896 135.223862 218.1138 142.887543 204.759979 152.061523 C 194.593231 159.046021 185.335251 167.416046 176.063965 175.611969 C 172.079681 179.134109 168.829361 183.591721 165.692703 187.946396 C 158.315445 198.188324 150.677673 208.300323 144.105026 219.05162 C 131.971802 238.898682 129.115646 261.521637 126.059563 284.947937 C 126.090431 292.290771 126.1213 299.633636 126.02066 307.81012 C 127.025322 314.740692 127.763962 321.72229 129.082748 328.59256 C 133.694534 352.617767 142.620041 375.058807 156.725037 394.97641 C 170.070938 413.822144 186.560959 429.716858 206.30661 442.131195 C 219.221069 450.250641 232.82103 456.58432 247.377579 461.05127 C 265.44278 466.59491 283.556458 470.032349 302.783844 469.378479 C 321.144989 468.754089 338.9534 466.221191 356.271606 460.7453 C 373.005249 455.454224 388.421417 447.283905 402.889252 437.115936 C 424.310608 422.061066 441.613129 403.222717 454.827362 380.903107 C 469.278778 356.493835 475.611359 329.345703 476.72934 301.238983 C 477.228455 288.691345 475.839233 275.90274 473.853912 263.455292 C 469.138763 233.892578 455.865295 207.973145 436.644348 185.365982 C 421.836761 167.949707 404.024017 153.77446 383.567535 143.290146 C 361.62381 132.04361 338.370819 125.245125 313.393707 123.511177 C 313.074432 123.452301 312.930298 123.260513 313.041931 123.024918 z" stroke-linecap="round" />
</g>
<g transform="matrix(1.82 0 0 1.82 183.03 532.22)"  >
<path style="stroke: none; stroke-width: 1; stroke-dasharray: none; stroke-linecap: butt; stroke-dashoffset: 0; stroke-linejoin: miter; stroke-miterlimit: 4; fill: rgb(253,252,249); fill-rule: nonzero; opacity: 1;" vector-effect="non-scaling-stroke"  transform=" translate(-105.5, -297.37)" d="M 105.542725 282.134033 C 105.956383 291.990356 105.985634 302.058624 105.968292 312.596863 C 105.612259 311.572052 105.041939 310.078247 105.036362 308.582367 C 105.003754 299.837158 105.103348 291.091461 105.542725 282.134033 z" stroke-linecap="round" />
</g>
<g transform="matrix(1.82 0 0 1.82 536.38 214.56)"  >
<path style="stroke: none; stroke-width: 1; stroke-dasharray: none; stroke-linecap: butt; stroke-dashoffset: 0; stroke-linejoin: miter; stroke-miterlimit: 4; fill: rgb(253,252,249); fill-rule: nonzero; opacity: 1;" vector-effect="non-scaling-stroke"  transform=" translate(-299.65, -122.83)" d="M 312.695129 122.793465 C 304.326111 123.050652 295.690552 122.986969 286.601074 122.871521 C 294.907654 122.704041 303.668121 122.588318 312.695129 122.793465 z" stroke-linecap="round" />
</g>
<g transform="matrix(1.82 0 0 1.82 220.93 529.04)"  >
<path style="stroke: none; stroke-width: 1; stroke-dasharray: none; stroke-linecap: butt; stroke-dashoffset: 0; stroke-linejoin: miter; stroke-miterlimit: 4; fill: rgb(253,252,249); fill-rule: nonzero; opacity: 1;" vector-effect="non-scaling-stroke"  transform=" translate(-126.33, -295.62)" d="M 126.108124 284.483826 C 126.39711 291.526855 126.637543 299.033966 126.515076 306.758789 C 126.1213 299.633636 126.090431 292.290771 126.108124 284.483826 z" stroke-linecap="round" />
</g>
<g transform="matrix(1.82 0 0 1.82 561.15 215.62)"  >
<path style="stroke: none; stroke-width: 1; stroke-dasharray: none; stroke-linecap: butt; stroke-dashoffset: 0; stroke-linejoin: miter; stroke-miterlimit: 4; fill: rgb(253,252,249); fill-rule: nonzero; opacity: 1;" vector-effect="non-scaling-stroke"  transform=" translate(-313.26, -123.41)" d="M 313.528076 123.648651 C 313.355347 123.775024 313.154266 123.623184 313.010254 123.133217 C 312.930298 123.260513 313.074432 123.452301 313.528076 123.648651 z" stroke-linecap="round" />
</g>
<g transform="matrix(1.82 0 0 1.82 406.73 417.47)"  >
<path style="stroke: none; stroke-width: 1; stroke-dasharray: none; stroke-linecap: butt; stroke-dashoffset: 0; stroke-linejoin: miter; stroke-miterlimit: 4; fill: rgb(233,194,83); fill-rule: nonzero; opacity: 1;" vector-effect="non-scaling-stroke"  transform=" translate(-228.41, -234.31)" d="M 272.001251 293.003693 C 270.666656 292.285706 269.004517 291.859406 268.057495 290.796173 C 264.945465 287.302216 262.092834 283.577209 259.419373 280.284424 C 255.169846 281.250183 251.260117 282.215851 247.317459 283.020081 C 235.972107 285.33429 226.865067 278.90744 221.558472 271.2677 C 216.619278 264.15683 210.553391 257.833862 205.528427 250.776062 C 197.48291 239.475815 189.879837 227.860275 182.112656 216.362534 C 181.215942 215.035141 180.603271 213.50061 179.620224 212.249695 C 176.81926 208.685486 177.492065 205.850601 181.104446 203.374252 C 184.76738 200.86322 187.190369 201.500015 189.950653 205.257645 C 200.309555 219.359528 211.036469 233.191727 221.685745 247.078781 C 222.891357 248.65094 224.413177 250.004318 225.905457 251.327042 C 227.809616 253.014908 230.171082 253.345535 231.85228 251.444229 C 233.310455 249.795105 235.091217 248.002014 232.757751 245.100769 C 224.816879 235.227722 217.148071 225.132339 209.516678 215.015274 C 205.134079 209.205185 200.97789 203.221741 196.808578 197.254288 C 194.214935 193.542053 197.493576 191.416611 199.75116 190.170319 C 201.339737 189.29335 204.890228 189.661026 206.134338 190.904297 C 209.797836 194.565262 212.638626 199.032196 215.999847 203.016266 C 225.580933 214.372757 235.270782 225.637405 244.891571 236.96051 C 246.647278 239.026886 248.175873 238.447052 249.745773 236.788284 C 251.200974 235.250748 253.102615 234.08609 250.98613 231.446259 C 245.192352 224.219788 239.599747 216.830902 233.982361 209.464462 C 227.689728 201.212494 221.317795 193.013077 215.336838 184.5392 C 214.346252 183.135773 214.466888 180.075302 215.322388 178.429489 C 216.934265 175.328537 220.372574 174.859375 223.003983 176.712006 C 226.058533 178.862564 228.609146 181.813126 231.10704 184.655045 C 240.247696 195.054474 249.421967 205.430801 258.29541 216.056488 C 264.434296 223.407639 270.968719 230.654144 275.703674 238.881332 C 279.555023 245.573303 280.213501 253.623734 276.320618 261.230591 C 272.266327 269.152832 272.33902 269.190033 278.447144 276.279572 C 276.419556 282.168945 274.210388 287.586304 272.001251 293.003693 z" stroke-linecap="round" />
</g>
<g transform="matrix(1.82 0 0 1.82 612.49 453.57)"  >
<path style="stroke: none; stroke-width: 1; stroke-dasharray: none; stroke-linecap: butt; stroke-dashoffset: 0; stroke-linejoin: miter; stroke-miterlimit: 4; fill: rgb(87,106,63); fill-rule: nonzero; opacity: 1;" vector-effect="non-scaling-stroke"  transform=" translate(-341.47, -254.15)" d="M 271.998291 293.455994 C 274.210388 287.586304 276.419556 282.168945 278.748352 276.446472 C 284.769226 269.914398 291.942078 266.312592 300.578125 267.020355 C 305.370117 267.413086 310.062134 269.024933 315.567841 270.259644 C 325.325653 260.442017 335.636475 250.050568 345.967133 239.678848 C 356.528748 229.075287 367.105072 218.486298 377.684082 207.900055 C 384.635498 200.943909 391.407074 193.791031 398.635681 187.135132 C 403.09903 183.025421 404.979614 183.503235 408.868958 187.348801 C 412.761749 191.197708 410.460266 194.710815 407.962646 197.529266 C 402.143646 204.095718 395.862762 210.252518 389.776917 216.582886 C 373.710419 233.294846 357.629517 249.993027 341.598663 266.739136 C 338.095886 270.398193 334.963562 274.427277 331.319153 277.930725 C 328.068207 281.055969 326.821136 284.07959 328.1297 288.738464 C 331.491455 300.707245 327.239136 312.726898 317.674744 318.784363 C 312.769379 320.726105 308.405365 322.37149 304.041382 324.016876 C 298.021301 324.03894 292.214752 324.531708 286.424652 321.140503 C 276.895172 315.559143 272.350708 307.635376 271.998627 296.90625 C 271.965881 295.907959 271.994934 294.907654 271.998291 293.455994 M 289.089905 289.88327 C 288.566681 292.849335 287.059235 296.05072 287.701813 298.738037 C 289.762756 307.357483 293.077057 309.562531 302.06662 309.61145 C 308.589691 309.646912 315.214386 300.55307 313.971527 295.75882 C 312.408081 289.728027 308.930817 285.025421 302.723541 283.458435 C 297.137665 282.048309 293.140717 285.519745 289.089905 289.88327 z" stroke-linecap="round" />
</g>
<g transform="matrix(1.82 0 0 1.82 628.92 664.15)"  >
<path style="stroke: none; stroke-width: 1; stroke-dasharray: none; stroke-linecap: butt; stroke-dashoffset: 0; stroke-linejoin: miter; stroke-miterlimit: 4; fill: rgb(233,194,83); fill-rule: nonzero; opacity: 1;" vector-effect="non-scaling-stroke"  transform=" translate(-350.5, -369.85)" d="M 304.024109 324.411438 C 308.405365 322.37149 312.769379 320.726105 317.489685 319.085388 C 332.429382 333.818695 346.983826 348.57608 361.60614 363.265961 C 371.573273 373.279083 381.760803 383.075958 391.598724 393.213196 C 396.110352 397.862061 398.376648 403.423309 396.051025 410.176788 C 392.434479 420.679169 379.205536 424.154907 371.057556 416.40799 C 368.49408 413.970642 366.605164 410.815674 364.453857 407.954315 C 353.436584 393.300659 342.507782 378.579834 331.40271 363.993103 C 323.235443 353.265289 314.747559 342.780731 306.641602 332.007843 C 305.170776 330.05307 304.85553 327.228821 304.024109 324.411438 z" stroke-linecap="round" />
</g>
<g transform="matrix(1.82 0 0 1.82 539.58 773.73)"  >
<path style="stroke: none; stroke-width: 1; stroke-dasharray: none; stroke-linecap: butt; stroke-dashoffset: 0; stroke-linejoin: miter; stroke-miterlimit: 4; fill: rgb(233,194,83); fill-rule: nonzero; opacity: 1;" vector-effect="non-scaling-stroke"  transform=" translate(-301.4, -430.06)" d="M 309.043579 416.50592 C 309.368713 425.000397 309.846802 433.072357 309.934235 441.148529 C 309.974457 444.862 308.505707 448.435822 304.667999 449.613281 C 300.991455 450.741241 296.990173 450.823822 294.478455 446.948883 C 293.661682 445.688843 293.116455 444.016663 293.088623 442.521057 C 292.946228 434.872833 293.331543 427.202423 292.893677 419.576447 C 292.610443 414.643707 294.496857 411.615845 298.839081 410.110046 C 302.322052 408.902161 306.714783 411.687683 309.043579 416.50592 z" stroke-linecap="round" />
</g>
<g transform="matrix(1.82 0 0 1.82 538.85 274.98)"  >
<path style="stroke: none; stroke-width: 1; stroke-dasharray: none; stroke-linecap: butt; stroke-dashoffset: 0; stroke-linejoin: miter; stroke-miterlimit: 4; fill: rgb(233,194,82); fill-rule: nonzero; opacity: 1;" vector-effect="non-scaling-stroke"  transform=" translate(-301, -156.02)" d="M 293.02594 150.110519 C 293.115143 147.497299 292.696503 145.167084 293.40451 143.253769 C 294.688721 139.783508 297.393585 137.719635 301.387573 138.012924 C 305.991516 138.350998 308.522583 141.045151 308.898468 145.428528 C 309.461304 151.991608 309.792023 158.583817 309.94516 165.170044 C 310.078888 170.92041 307.225891 173.758545 301.824249 174.018097 C 296.702301 174.264191 292.593689 173.286453 292.127472 165.825729 C 291.812347 160.782715 292.684753 155.665497 293.02594 150.110519 z" stroke-linecap="round" />
</g>
<g transform="matrix(1.82 0 0 1.82 283.02 528.56)"  >
<path style="stroke: none; stroke-width: 1; stroke-dasharray: none; stroke-linecap: butt; stroke-dashoffset: 0; stroke-linejoin: miter; stroke-miterlimit: 4; fill: rgb(233,194,84); fill-rule: nonzero; opacity: 1;" vector-effect="non-scaling-stroke"  transform=" translate(-160.44, -295.35)" d="M 174.105896 287.950378 C 175.494995 290.764587 177.845337 293.515106 178.037003 296.40863 C 178.293503 300.280853 175.681091 303.022247 171.276245 303.027496 C 164.149048 303.036011 156.94368 303.669006 149.916336 302.827423 C 142.731232 301.96701 141.301193 296.212952 144.27858 290.421875 C 144.927994 289.158752 146.283737 288.258789 147.982559 287.437805 C 157.135925 287.772797 165.620911 287.861603 174.105896 287.950378 z" stroke-linecap="round" />
</g>
<g transform="matrix(1.82 0 0 1.82 794.74 529)"  >
<path style="stroke: none; stroke-width: 1; stroke-dasharray: none; stroke-linecap: butt; stroke-dashoffset: 0; stroke-linejoin: miter; stroke-miterlimit: 4; fill: rgb(233,194,82); fill-rule: nonzero; opacity: 1;" vector-effect="non-scaling-stroke"  transform=" translate(-441.6, -295.6)" d="M 453.783447 303.103394 C 450.367432 303.126648 447.358063 303.019531 444.348816 303.023621 C 440.689087 303.028564 437.020325 302.98526 433.37207 303.220154 C 428.471405 303.535675 424.273621 300.588562 424.016449 296.394165 C 423.648071 290.38681 425.887268 288.033356 432.085541 288.004974 C 438.251984 287.976715 444.421692 288.120087 450.584198 287.962128 C 454.601044 287.859222 458.07196 288.796082 458.890991 293.076599 C 459.684143 297.221985 459.437714 301.458679 453.783447 303.103394 z" stroke-linecap="round" />
</g>
<g transform="matrix(1.82 0 0 1.82 284.26 514.24)"  >
<path style="stroke: none; stroke-width: 1; stroke-dasharray: none; stroke-linecap: butt; stroke-dashoffset: 0; stroke-linejoin: miter; stroke-miterlimit: 4; fill: rgb(242,221,162); fill-rule: nonzero; opacity: 1;" vector-effect="non-scaling-stroke"  transform=" translate(-161.12, -287.49)" d="M 173.912903 287.549408 C 165.620911 287.861603 157.135925 287.772797 148.332916 287.41864 C 156.583237 287.151642 165.151566 287.150024 173.912903 287.549408 z" stroke-linecap="round" />
</g>
</svg>